# File created by Blade
# Date/Time:  Wed Apr 08 17:39:41 2015
#---------------------------------------------------------
:version 1.10
:name HOM
:units
  mass 1.0
  length 1.000000
  angle deg
:documentation
     Acclaim Skeleton File
:root
   axis xyz
   order TX TY TZ RX RY RZ
   position 0.000000 0.000000 0.000000
   orientation 0 0 0
:bonedata
   begin
      id 1
      name Spine_dum
      direction 0.000000 1.000000 0.000000
      length 5.893853
      axis 0.0 0.0 0.0 xyz
   end
   begin
      id 2
      name LeftUpLeg_dum
      direction 1.000000 0.000000 0.000000
      length 3.697939
      axis 0.0 0.0 0.0 xyz
   end
   begin
      id 3
      name RightUpLeg_dum
      direction -1.000000 0.000000 0.000000
      length 3.697939
      axis 0.0 0.0 0.0 xyz
   end
   begin
      id 4
      name Spine
      direction 0.000000 1.000000 0.000000
      length 0.000000
      axis 0.0 0.0 0.0 xyz
      dof rx ry rz
   end
   begin
      id 5
      name Spine_dum1
      direction 0.000000 1.000000 0.000000
      length 16.447146
      axis 0.0 0.0 0.0 xyz
   end
   begin
      id 6
      name Spine_dum2
      direction 0.000000 1.000000 0.000000
      length 10.900383
      axis 0.0 0.0 0.0 xyz
   end
   begin
      id 7
      name Spine_dum3
      direction 0.000000 1.000000 0.000000
      length 10.900383
      axis 0.0 0.0 0.0 xyz
   end
   begin
      id 8
      name Head
      direction 0.000000 1.000000 0.000000
      length 4.527550
      axis 0.0 0.0 0.0 xyz
      dof rx ry rz
   end
   begin
      id 9
      name LeftShoulder
      direction 1.000000 0.000000 0.000000
      length 8.219464
      axis 0.0 0.0 -90.0 xyz
      dof rx ry rz
   end
   begin
      id 10
      name LeftArm
      direction 1.000000 0.000000 0.000000
      length 11.094937
      axis 0.0 0.0 -90.0 xyz
      dof rx ry rz
   end
   begin
      id 11
      name LeftForeArm
      direction 1.000000 0.000000 0.000000
      length 9.103875
      axis 0.0 0.0 -90.0 xyz
      dof ry rz rx
   end
   begin
      id 12
      name LeftHand
      direction 0.000000 0.000000 0.000000
      length 0.000000
      axis 0.0 0.0 -90.0 xyz
      dof rx ry rz
   end
   begin
      id 13
      name LeftHand_dum1
      direction 0.000000 0.000000 0.000000
      length 0.000000
      axis 0.0 0.0 -90.0 xyz
   end
   begin
      id 14
      name LeftHand_dum2
      direction 1.000000 0.000000 0.000000
      length 3.937000
      axis 0.0 0.0 -90.0 xyz
   end
   begin
      id 15
      name LeftHandThumb1
      direction 0.000000 0.000000 1.000000
      length 3.937000
      axis 0.0 0.0 -90.0 xyz
      dof rx rz ry
   end
   begin
      id 16
      name RightShoulder
      direction -1.000000 0.000000 0.000000
      length 8.219464
      axis 0.0 0.0 90.0 xyz
      dof rx ry rz
   end
   begin
      id 17
      name RightArm
      direction -1.000000 0.000000 0.000000
      length 11.094937
      axis 0.0 0.0 90.0 xyz
      dof rx ry rz
   end
   begin
      id 18
      name RightForeArm
      direction -1.000000 0.000000 0.000000
      length 9.103875
      axis 0.0 0.0 90.0 xyz
      dof ry rz rx
   end
   begin
      id 19
      name RightHand
      direction 0.000000 0.000000 0.000000
      length 0.000000
      axis 0.0 0.0 90.0 xyz
      dof rx ry rz
   end
   begin
      id 20
      name RightHand_dum1
      direction 0.000000 0.000000 0.000000
      length 0.000000
      axis 0.0 0.0 90.0 xyz
   end
   begin
      id 21
      name RightHand_dum2
      direction -1.000000 0.000000 0.000000
      length 3.937000
      axis 0.0 0.0 90.0 xyz
   end
   begin
      id 22
      name RightHandThumb1
      direction 0.000000 0.000000 1.000000
      length 3.937000
      axis 0.0 0.0 90.0 xyz
      dof rx rz ry
   end
   begin
      id 23
      name LeftUpLeg
      direction 0.000000 -1.000000 0.000000
      length 16.181467
      axis 0.0 0.0 0.0 xyz
      dof rx ry rz
   end
   begin
      id 24
      name LeftLeg
      direction 0.000000 -1.000000 0.000000
      length 16.501392
      axis 0.0 0.0 0.0 xyz
      dof rx ry rz
   end
   begin
      id 25
      name LeftFoot
      direction 0.000000 -0.258819 0.965926
      length 6.408245
      axis 15.0 0.0 0.0 xyz
      dof rx ry rz
   end
   begin
      id 26
      name LeftToeBase
      direction 0.000000 0.000000 1.000000
      length 2.952750
      axis 0.0 0.0 0.0 xyz
      dof rx ry rz
   end
   begin
      id 27
      name RightUpLeg
      direction 0.000000 -1.000000 0.000000
      length 16.181467
      axis 0.0 0.0 0.0 xyz
      dof rx ry rz
   end
   begin
      id 28
      name RightLeg
      direction 0.000000 -1.000000 0.000000
      length 16.501392
      axis 0.0 0.0 0.0 xyz
      dof rx ry rz
   end
   begin
      id 29
      name RightFoot
      direction 0.000000 -0.258819 0.965926
      length 6.408245
      axis 15.0 0.0 0.0 xyz
      dof rx ry rz
   end
   begin
      id 30
      name RightToeBase
      direction 0.000000 0.000000 1.000000
      length 2.952750
      axis 0.0 0.0 0.0 xyz
      dof rx ry rz
   end
:hierarchy
   begin
      root Spine_dum LeftUpLeg_dum RightUpLeg_dum
      Spine_dum Spine
      LeftUpLeg_dum LeftUpLeg
      RightUpLeg_dum RightUpLeg
      Spine Spine_dum1 Spine_dum2 Spine_dum3
      Spine_dum1 Head
      Spine_dum2 LeftShoulder
      Spine_dum3 RightShoulder
      LeftShoulder LeftArm
      LeftArm LeftForeArm
      LeftForeArm LeftHand
      LeftHand LeftHand_dum1 LeftHand_dum2
      LeftHand_dum1 LeftHandThumb1
      RightShoulder RightArm
      RightArm RightForeArm
      RightForeArm RightHand
      RightHand RightHand_dum1 RightHand_dum2
      RightHand_dum1 RightHandThumb1
      LeftUpLeg LeftLeg
      LeftLeg LeftFoot
      LeftFoot LeftToeBase
      RightUpLeg RightLeg
      RightLeg RightFoot
      RightFoot RightToeBase
   end

# File created by Blade
# Date/Time:  Wed Apr 08 17:39:35 2015
# Frame Rate: 120.000 fps
#------------------------------------------------------
:FULLY-SPECIFIED
:DEGREES
1700
root 8.721133 36.446983 3.152334 55.738084 -74.407162 -389.651588
Spine -27.120340 -4.405031 -0.317380
Head 42.244650 -1.498433 16.577644
LeftShoulder -9.389999 23.070090 13.560045
LeftArm 22.064195 22.157730 -74.492875
LeftForeArm 17.276523 -0.000000 24.304861
LeftHand -11.583942 -0.000000 -11.710204
LeftHandThumb1 -26.253704 0.000000 33.147579
RightShoulder -39.809539 -51.169458 22.764698
RightArm 57.437608 -19.361540 46.797263
RightForeArm -1.773012 -0.000000 20.350800
RightHand -2.311771 -0.000000 22.353793
RightHandThumb1 -24.326973 -0.000000 -32.862282
LeftUpLeg -34.426821 10.337696 -6.315931
LeftLeg 18.282313 -0.000000 -0.000000
LeftFoot -14.364881 15.045796 -3.228921
LeftToeBase 2.769449 -0.000000 -0.000000
RightUpLeg -91.328606 -16.105259 13.958812
RightLeg 66.042334 -0.000000 -0.000000
RightFoot 1.511300 -25.508440 14.910552
RightToeBase -10.873820 -0.000000 0.000000
1701
root 8.704506 36.444585 3.146750 55.433228 -74.368126 -389.607067
Spine -26.894787 -4.475863 -0.298292
Head 42.205962 -1.559644 16.581643
LeftShoulder -9.357819 23.042202 13.542410
LeftArm 22.075710 22.195046 -74.456136
LeftForeArm 17.314771 -0.000000 24.303476
LeftHand -11.603652 -0.000000 -11.793576
LeftHandThumb1 -26.253704 0.000000 33.147579
RightShoulder -39.847428 -51.160159 22.864812
RightArm 57.417717 -19.354918 46.797669
RightForeArm -1.399452 -0.000000 20.292715
RightHand -2.385747 0.000000 22.931823
RightHandThumb1 -24.326973 -0.000000 -32.862282
LeftUpLeg -34.128320 10.433337 -6.259794
LeftLeg 18.255574 -0.000000 -0.000000
LeftFoot -14.402023 14.933991 -3.225225
LeftToeBase 2.899323 -0.000000 -0.000000
RightUpLeg -90.572207 -15.985726 12.330179
RightLeg 66.601854 -0.000000 -0.000000
RightFoot 4.041131 -24.230545 15.544926
RightToeBase -8.668398 -0.000000 0.000000
1702
root 8.686767 36.442509 3.139752 55.100795 -74.330287 -389.571844
Spine -26.618230 -4.548457 -0.291319
Head 42.170564 -1.629262 16.604190
LeftShoulder -9.334212 23.036809 13.521474
LeftArm 22.124454 22.198190 -74.411212
LeftForeArm 17.368991 -0.000000 24.279293
LeftHand -11.641304 -0.000000 -11.733899
LeftHandThumb1 -26.253704 0.000000 33.147579
RightShoulder -39.861397 -51.140700 22.959573
RightArm 57.377597 -19.355756 46.808787
RightForeArm -1.008555 -0.000000 20.254151
RightHand -2.440160 -0.000000 23.450814
RightHandThumb1 -24.326973 -0.000000 -32.862282
LeftUpLeg -33.784434 10.539249 -6.197493
LeftLeg 18.213670 -0.000000 -0.000000
LeftFoot -14.453671 14.832548 -3.224164
LeftToeBase 3.086913 -0.000000 -0.000000
RightUpLeg -89.791493 -15.833889 10.761936
RightLeg 67.189669 -0.000000 -0.000000
RightFoot 6.287485 -23.217283 16.247282
RightToeBase -5.211038 -0.000000 0.000000
1703
root 8.673439 36.444661 3.131247 54.909395 -74.263899 -389.571325
Spine -26.465971 -4.613428 -0.241501
Head 42.143158 -1.705733 16.603201
LeftShoulder -9.300083 22.998731 13.510933
LeftArm 22.127370 22.232290 -74.391339
LeftForeArm 17.340184 -0.000000 24.247803
LeftHand -11.600641 -0.000000 -11.686926
LeftHandThumb1 -26.253704 0.000000 33.147579
RightShoulder -39.913316 -51.115042 23.044941
RightArm 57.347710 -19.399484 46.796037
RightForeArm -0.532116 -0.000000 20.221463
RightHand -2.609546 -0.000000 23.918529
RightHandThumb1 -24.326973 -0.000000 -32.862282
LeftUpLeg -33.563467 10.638251 -6.135871
LeftLeg 18.172659 -0.000000 -0.000000
LeftFoot -14.472313 14.736648 -3.204182
LeftToeBase 3.262062 -0.000000 -0.000000
RightUpLeg -89.121449 -15.631546 9.319598
RightLeg 67.757964 -0.000000 -0.000000
RightFoot 8.336355 -22.535294 17.165886
RightToeBase -2.233745 -0.000000 0.000000
1704
root 8.659403 36.445243 3.125412 54.649967 -74.253289 -389.553697
Spine -26.253313 -4.670945 -0.253213
Head 42.118635 -1.767379 16.630722
LeftShoulder -9.262442 22.959781 13.516533
LeftArm 22.105370 22.204167 -74.404121
LeftForeArm 17.377849 0.000000 24.237024
LeftHand -11.603859 -0.000000 -11.698417
LeftHandThumb1 -26.253704 0.000000 33.147579
RightShoulder -39.891716 -51.079250 23.067682
RightArm 57.294347 -19.456461 46.826821
RightForeArm -0.061295 -0.000000 20.186137
RightHand -2.686569 -0.000000 24.267746
RightHandThumb1 -24.326973 -0.000000 -32.862282
LeftUpLeg -33.278276 10.769128 -6.118210
LeftLeg 18.119259 -0.000000 -0.000000
LeftFoot -14.482642 14.628791 -3.229582
LeftToeBase 3.333256 -0.000000 -0.000000
RightUpLeg -88.441900 -15.417803 7.931195
RightLeg 68.356599 -0.000000 -0.000000
RightFoot 10.179334 -22.217530 18.247721
RightToeBase 0.076142 -0.000000 -0.000000
1705
root 8.650049 36.450407 3.116109 54.596227 -74.184966 -389.616694
Spine -26.188506 -4.727225 -0.185821
Head 42.084457 -1.828541 16.630725
LeftShoulder -9.245323 22.938028 13.517252
LeftArm 22.107691 22.193763 -74.425611
LeftForeArm 17.400874 -0.000000 24.199865
LeftHand -11.641004 -0.000000 -11.717024
LeftHandThumb1 -26.253704 0.000000 33.147579
RightShoulder -39.897215 -51.049668 23.078210
RightArm 57.224260 -19.532160 46.865716
RightForeArm 0.428661 -0.000000 20.160954
RightHand -2.737733 0.000000 24.682513
RightHandThumb1 -24.326973 -0.000000 -32.862282
LeftUpLeg -33.129049 10.844120 -6.033723
LeftLeg 18.052640 -0.000000 -0.000000
LeftFoot -14.458383 14.531091 -3.151858
LeftToeBase 3.499698 -0.000000 -0.000000
RightUpLeg -87.891092 -15.188133 6.720101
RightLeg 68.880411 -0.000000 -0.000000
RightFoot 12.008510 -22.301730 19.360042
RightToeBase 2.510420 -0.000000 -0.000000
